<?xml version="1.0" encoding="utf-8"?>
<!-- Generator: Adobe Illustrator 25.2.3, SVG Export Plug-In . SVG Version: 6.00 Build 0)  -->
<svg version="1.1" id="Layer_1" xmlns="http://www.w3.org/2000/svg" xmlns:xlink="http://www.w3.org/1999/xlink" x="0px" y="0px"
	 viewBox="0 0 250 250" style="enable-background:new 0 0 250 250;" xml:space="preserve">
<style type="text/css">
	.st0{opacity:0.15;}
</style>
<g class="st0">
	<path d="M219.9,91.3c-2.5-8.1-6.7-15-12.1-20.3L204,91.3H219.9z"/>
	<path d="M154.2,159.1c0-2.3,0.4-5.6,0.9-9.4l8.8-54h-14.8l1.3-4.4c0.4,0,0.5,0,0.9,0c18.9,0,37.4-9.6,50.1-25.3
		c-6.7-4.3-14.6-6.7-23.3-6.7c-20.4,0-35.7,12.5-41.5,34.6c0.2-2.1,0.2-4.3,0.2-6.2c0-19-7.5-28.1-23.8-28.1
		c-23,0-39.1,15.4-47,45.6l5.3,1c5.2-18.3,11-27.4,15.8-27.4c2.6,0,3.8,1.6,3.8,5c0,1.2-0.3,2.9-0.5,4.6L66.6,223.2h-17l-1.2,6.2h89
		l1.2-6.2h-19.3l10.8-62.9c4.1,14.1,14.6,20.6,32.4,20.6c4.2,0,8.3-0.5,12.2-1.5C161.5,178.4,154.2,171.3,154.2,159.1z"/>
	<path d="M193.2,157.2c-0.2,1.1-0.2,2.9-0.2,4.5c0,2.5,1.6,4.3,3.6,4.3c4.5,0,9.5-7.4,14-22l4.3,0.7c4.8-10.2,7.6-22.1,7.6-34.8
		c0-5-0.5-9.7-1.5-14.1h-17.9L193.2,157.2z"/>
</g>
</svg>
