<?xml version="1.0" encoding="utf-8"?>
<!-- Generator: Adobe Illustrator 25.2.3, SVG Export Plug-In . SVG Version: 6.00 Build 0)  -->
<svg version="1.1" id="Layer_1" xmlns="http://www.w3.org/2000/svg" xmlns:xlink="http://www.w3.org/1999/xlink" x="0px" y="0px"
	 viewBox="0 0 250 250" style="enable-background:new 0 0 250 250;" xml:space="preserve">
<style type="text/css">
	.st0{fill:wheat;}
	.st1{fill:white;}
</style>
<g>
	<path class="st1" d="M128.2,213.1l-1.2,6.2H38l1.2-6.2h17L80,78.3c0.2-1.7,0.5-3.4,0.5-4.6c0-3.4-1.2-5-3.8-5c-4.8,0-10.6,9.1-15.8,27.4l-5.3-1
		c7.9-30.2,24-45.6,47-45.6c16.3,0,23.8,9.1,23.8,28.1c0,1.9,0,4.1-0.2,6.2c5.8-22.1,21.1-34.6,41.5-34.6
		c25.7,0,44.4,20.4,44.4,50.6c0,39.8-27.1,71-60,71c-17.8,0-28.3-6.5-32.4-20.6l-10.8,62.9H128.2z"/>
</g>
<g>
	<path class="st0" d="M140,81.2c0.4,0,0.5,0,0.9,0c21.2,0,41.9-12.1,54.5-31.3h4l-5.8,31.3H212l-0.9,4.5h-18.4l-9.9,61.4
		c-0.2,1.1-0.2,2.9-0.2,4.5c0,2.5,1.6,4.3,3.6,4.3c4.5,0,9.5-7.4,14-22l4.3,0.7c-6.8,23.6-18.4,34.9-36.4,34.9
		c-15.7,0-24.3-7.2-24.3-20.5c0-2.3,0.4-5.6,0.9-9.4l8.8-54h-14.8L140,81.2z"/>
</g>
</svg>
