<?xml version="1.0" encoding="utf-8"?>
<!-- Generator: Adobe Illustrator 25.3.1, SVG Export Plug-In . SVG Version: 6.00 Build 0)  -->
<svg version="1.1" id="Layer_1" xmlns="http://www.w3.org/2000/svg" xmlns:xlink="http://www.w3.org/1999/xlink" x="0px" y="0px"
	 viewBox="0 0 250 250" style="enable-background:new 0 0 250 250;" xml:space="preserve">
<g>
	<path d="M246.1,48.9c-3.6-11.6-9.6-21.5-17.4-29.1l-5.5,29.1H246.1z"/>
	<path d="M152,146.2c0-3.3,0.6-8,1.3-13.5l12.6-77.5h-21.2l1.9-6.3c0.6,0,0.7,0,1.3,0c27.1,0,53.7-13.8,71.9-36.3
		c-9.6-6.2-21-9.6-33.4-9.6c-29.3,0-51.2,17.9-59.6,49.7c0.3-3,0.3-6.2,0.3-8.9c0-27.3-10.8-40.3-34.2-40.3
		c-33,0-56.1,22.1-67.5,65.4l7.6,1.4C40.5,44,48.8,30.9,55.7,30.9c3.7,0,5.5,2.3,5.5,7.2c0,1.7-0.4,4.2-0.7,6.6L26.1,238.2H1.7
		L0,247.1h127.7l1.7-8.9h-27.7l15.5-90.3c5.9,20.2,21,29.6,46.5,29.6c6,0,11.9-0.7,17.5-2.2C162.3,173.7,152,163.7,152,146.2z"/>
	<path d="M208,143.4c-0.3,1.6-0.3,4.2-0.3,6.5c0,3.6,2.3,6.2,5.2,6.2c6.5,0,13.6-10.6,20.1-31.6l6.2,1C246,110.9,250,93.8,250,75.6
		c0-7.2-0.7-13.9-2.2-20.2h-25.7L208,143.4z"/>
</g>
</svg>
